# xmcd
#
# Track frame offsets:
#	150
#	17837
#	34153
#	49350
#	66816
#	85235
#	102358
#	123869
#	140424
#	158787
#	171729
#	189370
#	205522
#	217553
#	234447
#	247382
#	263666
#	277673
#	297066
#	314546
#
# Disc length: 4381 seconds
#
# Revision: 0
# Processed by: cddbd v1.5.2PL0 Copyright (c) Steve Scherf et al.
# Submitted via: dBpowerAMP V4.0
#
DISCID=1c111b14
DTITLE=Bruno e Marrone - Bruno e Marrone
DYEAR=2000
DGENRE=Classical
TTITLE0=Musica01
TTITLE1=Musica02
TTITLE2=Musica03
TTITLE3=Musica04
TTITLE4=Musica05
TTITLE5=Musica06
TTITLE6=Musica07
TTITLE7=Musica08
TTITLE8=Musica09
TTITLE9=Musica10
TTITLE10=Musica11
TTITLE11=Musica12
TTITLE12=Musica13
TTITLE13=Musica14
TTITLE14=Musica15
TTITLE15=Musica16
TTITLE16=Musica17
TTITLE17=Musica18
TTITLE18=Musica19
TTITLE19=Musica20
EXTD=
EXTT0=
EXTT1=
EXTT2=
EXTT3=
EXTT4=
EXTT5=
EXTT6=
EXTT7=
EXTT8=
EXTT9=
EXTT10=
EXTT11=
EXTT12=
EXTT13=
EXTT14=
EXTT15=
EXTT16=
EXTT17=
EXTT18=
EXTT19=
PLAYORDER=
